<svg width="29" height="29" viewBox="0 0 29 29" fill="none" xmlns="http://www.w3.org/2000/svg">
<path d="M21.2425 0H7.30924C3.27246 0 0 3.3087 0 7.39019V21.4777C0 25.5592 3.27246 28.8679 7.30924 28.8679H21.2425C25.2793 28.8679 28.5517 25.5592 28.5517 21.4777V7.39019C28.5517 3.3087 25.2793 0 21.2425 0Z" fill="#4F7DDD"/>
<mask id="mask0_184_40" style="mask-type:luminance" maskUnits="userSpaceOnUse" x="5" y="5" width="19" height="19">
<path d="M23.4118 5.42712H5.13867V23.4407H23.4118V5.42712Z" fill="white"/>
</mask>
<g mask="url(#mask0_184_40)">
<path d="M12.4986 6.06284C13.5329 5.21522 15.0176 5.21522 16.0518 6.06284L22.3771 11.2468C23.0319 11.7834 23.4118 12.5876 23.4118 13.4367V20.5013C23.4118 22.0618 22.1531 23.3268 20.6006 23.3268H7.94992C6.39731 23.3268 5.13867 22.0618 5.13867 20.5013V13.4367C5.1387 12.5876 5.51858 11.7834 6.17332 11.2468L12.4986 6.06284ZM13.3089 10.6114V12.9073H11.0247V15.2031H8.74058V19.7948H11.0247V17.499H13.3089V15.2031H15.593V17.499H17.8772V19.7948H20.1613V15.2031H17.8772V12.9073H15.593V10.6114H13.3089Z" fill="white"/>
</g>
</svg>
