<svg width="60" height="60" viewBox="0 0 60 60" fill="none" xmlns="http://www.w3.org/2000/svg">
<path d="M26 6C14.978 6 6 14.978 6 26C6 37.022 14.978 46 26 46C30.793 46 35.1948 44.298 38.6445 41.4727L50.5859 53.4141C50.7702 53.606 50.991 53.7593 51.2352 53.8648C51.4795 53.9704 51.7423 54.0262 52.0084 54.0289C52.2745 54.0316 52.5385 53.9812 52.7848 53.8806C53.0312 53.78 53.255 53.6313 53.4431 53.4431C53.6313 53.255 53.78 53.0312 53.8806 52.7848C53.9812 52.5385 54.0316 52.2745 54.0289 52.0084C54.0262 51.7423 53.9704 51.4795 53.8648 51.2352C53.7593 50.991 53.606 50.7702 53.4141 50.5859L41.4727 38.6445C44.298 35.1948 46 30.793 46 26C46 14.978 37.022 6 26 6ZM26 10C34.8602 10 42 17.1398 42 26C42 34.8602 34.8602 42 26 42C17.1398 42 10 34.8602 10 26C10 17.1398 17.1398 10 26 10ZM18 24C17.4696 24 16.9609 24.2107 16.5858 24.5858C16.2107 24.9609 16 25.4696 16 26C16 26.5304 16.2107 27.0391 16.5858 27.4142C16.9609 27.7893 17.4696 28 18 28C18.5304 28 19.0391 27.7893 19.4142 27.4142C19.7893 27.0391 20 26.5304 20 26C20 25.4696 19.7893 24.9609 19.4142 24.5858C19.0391 24.2107 18.5304 24 18 24ZM26 24C25.4696 24 24.9609 24.2107 24.5858 24.5858C24.2107 24.9609 24 25.4696 24 26C24 26.5304 24.2107 27.0391 24.5858 27.4142C24.9609 27.7893 25.4696 28 26 28C26.5304 28 27.0391 27.7893 27.4142 27.4142C27.7893 27.0391 28 26.5304 28 26C28 25.4696 27.7893 24.9609 27.4142 24.5858C27.0391 24.2107 26.5304 24 26 24ZM34 24C33.4696 24 32.9609 24.2107 32.5858 24.5858C32.2107 24.9609 32 25.4696 32 26C32 26.5304 32.2107 27.0391 32.5858 27.4142C32.9609 27.7893 33.4696 28 34 28C34.5304 28 35.0391 27.7893 35.4142 27.4142C35.7893 27.0391 36 26.5304 36 26C36 25.4696 35.7893 24.9609 35.4142 24.5858C35.0391 24.2107 34.5304 24 34 24Z" fill="#507DDE"/>
</svg>
