<svg width="60" height="60" viewBox="0 0 60 60" fill="none" xmlns="http://www.w3.org/2000/svg">
<path d="M26 6C13.85 6 4 14.954 4 26C4 31.6732 6.61625 36.7755 10.793 40.4102C10.1939 42.3721 8.9442 44.3234 6.64844 46.0625L6.64453 46.0664C6.45518 46.1384 6.29216 46.2662 6.17706 46.433C6.06197 46.5997 6.00022 46.7974 6 47C6 47.2652 6.10536 47.5196 6.29289 47.7071C6.48043 47.8946 6.73478 48 7 48C7.06833 47.9991 7.1364 47.9913 7.20312 47.9766C11.0833 47.9653 14.3939 46.3079 17.0273 44.2305C18.277 44.7388 19.5815 45.1579 20.9414 45.4492C20.3334 43.7292 20 41.898 20 40C20 37.124 20.7714 34.414 22.1094 32H18C16.896 32 16 31.104 16 30C16 28.896 16.896 28 18 28H25.1367C26.7607 26.372 28.6989 25.01 30.8789 24H18C16.896 24 16 23.104 16 22C16 20.896 16.896 20 18 20H34C35.104 20 36 20.896 36 22C36 22.134 35.9498 22.2529 35.9258 22.3789C37.2418 22.1329 38.604 22 40 22C42.764 22 45.3989 22.5078 47.7969 23.4258C46.4049 13.5978 37.188 6 26 6ZM40 26C31.164 26 24 32.268 24 40C24 47.732 31.164 54 40 54C42.1122 54 44.1227 53.6312 45.9687 52.9805C48.4215 54.6938 51.3897 55.9647 54.7891 55.9766C54.8583 55.9918 54.9291 55.9997 55 56C55.2652 56 55.5196 55.8946 55.7071 55.7071C55.8946 55.5196 56 55.2652 56 55C55.9997 54.7954 55.9366 54.5957 55.8192 54.4281C55.7019 54.2605 55.5359 54.1328 55.3437 54.0625C53.5134 52.6729 52.3402 51.1432 51.6367 49.5859C54.3342 47.0799 56 43.7142 56 40C56 32.268 48.836 26 40 26ZM34 34H46C47.104 34 48 34.896 48 36C48 37.104 47.104 38 46 38H34C32.896 38 32 37.104 32 36C32 34.896 32.896 34 34 34ZM34 42H46C47.104 42 48 42.896 48 44C48 45.104 47.104 46 46 46H34C32.896 46 32 45.104 32 44C32 42.896 32.896 42 34 42Z" fill="#53AA86"/>
</svg>
