<svg preserveAspectRatio="none" width="100%" height="100%" overflow="visible" style="display: block;" viewBox="0 0 50 50" fill="none" xmlns="http://www.w3.org/2000/svg">
<g id="icons8-keys 1" opacity="0.5">
<path id="Vector" d="M11 0C9.897 0 9 0.897 9 2V19C9 20.103 9.897 21 11 21H13.5469C13.3419 20.357 13.1974 19.687 13.1074 19H11V2H38L38.002 18.8652C38.5 19.3542 38.946 19.8945 39.334 20.4785C39.74 20.1115 40 19.588 40 19V2C40 0.897 39.103 0 38 0H11ZM24.5 6C23.0833 6 21.8936 6.56726 21.127 7.42969C20.3603 8.29212 20 9.40278 20 10.5C20 11.5972 20.3603 12.7079 21.127 13.5703C21.8936 14.4327 23.0833 15 24.5 15C25.9167 15 27.1064 14.4327 27.873 13.5703C28.6397 12.7079 29 11.5972 29 10.5C29 9.40278 28.6397 8.29212 27.873 7.42969C27.1064 6.56726 25.9167 6 24.5 6ZM24.5 8C25.4167 8 25.9769 8.30774 26.377 8.75781C26.777 9.20788 27 9.84722 27 10.5C27 11.1528 26.777 11.7921 26.377 12.2422C25.9769 12.6923 25.4167 13 24.5 13C23.5833 13 23.0231 12.6923 22.623 12.2422C22.223 11.7921 22 11.1528 22 10.5C22 9.84722 22.223 9.20788 22.623 8.75781C23.0231 8.30774 23.5833 8 24.5 8ZM18.0059 10.5879C16.1609 12.3219 15 14.775 15 17.5C15 19.2686 15.4919 20.9203 16.3379 22.3379C14.8916 23.7842 14 25.785 14 28C14 30.9695 15.6079 33.5473 18 34.9277V47C18.0001 47.2652 18.1054 47.5195 18.293 47.707L20.293 49.707C20.4805 49.8946 20.7348 49.9999 21 50H23C23.2652 49.9999 23.5195 49.8946 23.707 49.707L25.707 47.707C25.8946 47.5195 25.9999 47.2652 26 47V45C25.9999 44.7348 25.8946 44.4805 25.707 44.293L24.9141 43.5L25.707 42.707C25.8946 42.5195 25.9999 42.2652 26 42V40C26 39.8026 25.9415 39.6096 25.832 39.4453L25.2012 38.5L25.832 37.5547C25.9415 37.3904 26 37.1974 26 37V34.9277C26.7228 34.5106 27.3713 33.9833 27.9277 33.3691C29.6226 34.0826 31.5056 34.1819 33.252 33.666L41.293 41.707C41.4805 41.8946 41.7348 41.9999 42 42H45C45.2652 41.9999 45.5195 41.8946 45.707 41.707L46.707 40.707C46.8946 40.5195 46.9999 40.2652 47 40V37C46.9999 36.7348 46.8946 36.4805 46.707 36.293L45.707 35.293C45.5195 35.1054 45.2652 35.0001 45 35H44V34C43.9999 33.7348 43.8946 33.4805 43.707 33.293L41.707 31.293C41.5195 31.1054 41.2652 31.0001 41 31H40V30C39.9999 29.7348 39.8946 29.4805 39.707 29.293L38.6641 28.25C39.46 25.5416 38.7877 22.4987 36.6445 20.3555C35.8443 19.5552 34.9185 18.9626 33.9316 18.5723C33.9726 18.2199 34 17.8634 34 17.5C34 14.775 32.8401 12.3219 30.9961 10.5879C30.9851 11.4469 30.8101 12.2657 30.4961 13.0137C31.4361 14.2667 32 15.816 32 17.5C32 17.6954 31.9897 17.8885 31.9746 18.0801C31.6506 18.0402 31.3259 18.0117 31 18.0117C28.9593 18.0117 26.9183 18.7927 25.3555 20.3555C25.2677 20.4432 25.1916 20.5335 25.1113 20.623C24.1558 20.2213 23.1044 20 22 20C20.5163 20 19.1343 20.4083 17.9453 21.1074C17.351 20.0355 17 18.8114 17 17.5C17 15.816 17.5649 14.2667 18.5059 13.0137C18.1919 12.2657 18.0169 11.4469 18.0059 10.5879ZM31 19.9883C31.1869 19.9883 31.3743 19.9977 31.5605 20.0156C31.5592 20.0195 31.558 20.0235 31.5566 20.0273C31.809 20.0478 32.0595 20.0945 32.3086 20.1426C33.3705 20.3864 34.3855 20.9246 35.2305 21.7695C37.6069 24.1459 37.6069 27.8541 35.2305 30.2305C33.5459 31.915 31.2099 32.3128 29.1367 31.6094C29.6845 30.5249 30 29.3017 30 28C30 27.6939 29.9805 27.3927 29.9473 27.0957C29.9433 27.0617 29.938 27.028 29.9336 26.9941C29.9562 26.9949 29.9772 27 30 27C31.105 27 32 26.105 32 25C32 23.895 31.105 23 30 23C29.4756 23 29.0031 23.2071 28.6465 23.5371C28.1681 22.8245 27.5735 22.2001 26.8965 21.6758C28.0664 20.5635 29.5288 19.9883 31 19.9883ZM22 22C22.9867 22 23.9064 22.2313 24.7188 22.6348L24.9062 22.7363C25.8323 23.2426 26.6065 23.9815 27.1484 24.8828C27.1507 24.8866 27.1521 24.8908 27.1543 24.8945C27.4141 25.3288 27.618 25.8019 27.7617 26.3027C27.7748 26.3489 27.7848 26.3967 27.7969 26.4434C27.8472 26.6363 27.8865 26.8344 27.918 27.0352C27.9288 27.1048 27.9407 27.1736 27.9492 27.2441C27.9793 27.4919 28 27.7425 28 28C28 28.3082 27.9711 28.6069 27.9277 28.9004C27.9212 28.9455 27.9157 28.9905 27.9082 29.0352C27.7488 29.967 27.382 30.8183 26.8516 31.5469L26.5957 31.8984C25.5043 33.191 23.8667 34 22 34C18.6299 34 16 31.3701 16 28C16 26.4208 16.5824 25.0089 17.543 23.9492C18.2536 24.7131 19.0892 25.3572 20.0156 25.8555C20.0121 25.9042 20 25.9504 20 26C20 27.105 20.895 28 22 28C23.105 28 24 27.105 24 26C24 24.895 23.105 24 22 24C21.6991 24 21.4161 24.0706 21.1602 24.1895C20.3999 23.8087 19.7077 23.3146 19.1211 22.7109C19.9708 22.2568 20.9491 22 22 22ZM37.7832 30.1973L38 30.4141V32C38 32.2652 38.1054 32.5195 38.2929 32.7071C38.4805 32.8946 38.7348 33 39 33H40.5859L42 34.4141V36C42 36.2652 42.1054 36.5195 42.2929 36.7071C42.4805 36.8946 42.7348 37 43 37H44.5859L45 37.4141V39.5859L44.5859 40H42.4141L35.2012 32.7871C35.7131 32.4681 36.1989 32.0902 36.6445 31.6445C37.0905 31.1985 37.4645 30.71 37.7832 30.1973ZM20 35.7383C20.6402 35.9025 21.3074 36 22 36C22.6926 36 23.3598 35.9025 24 35.7383V36.6973L23.168 37.9453C23.0585 38.1096 23 38.3026 23 38.5C23 38.6974 23.0585 38.8904 23.168 39.0547L24 40.3027V41.5859L22.793 42.793C22.6055 42.9805 22.5002 43.2348 22.5002 43.5C22.5002 43.7652 22.6055 44.0195 22.793 44.207L24 45.4141V46.5859L22.5859 48H21.4141L20 46.5859V35.7383Z" fill="var(--fill-0, black)"/>
</g>
</svg>
