<svg preserveAspectRatio="none" width="100%" height="100%" overflow="visible" style="display: block;" viewBox="0 0 50 50" fill="none" xmlns="http://www.w3.org/2000/svg">
<g id="icons8-land-sales 1">
<path id="Vector" d="M25 2C23.3555 2 22 3.35547 22 5V6H5C4.96875 6 4.9375 6 4.90625 6C4.39062 6.04688 3.99609 6.48047 4 7V26C4 26.5508 4.44922 27 5 27H22V42.0312L22.4063 42.3125C22.4063 42.3125 22.7227 42.5312 23.1563 42.6875C23.5898 42.8438 24.2031 43 25 43C25.7969 43 26.4102 42.8438 26.8438 42.6875C27.2773 42.5312 27.5938 42.3125 27.5938 42.3125L28 42.0312V27H45C45.5508 27 46 26.5508 46 26V7C46 6.44922 45.5508 6 45 6H28V5C28 3.35547 26.6445 2 25 2ZM25 4C25.5664 4 26 4.43359 26 5V6H24V5C24 4.43359 24.4336 4 25 4ZM6 8H44V25H6V8ZM12.2813 11.7812C10.2188 11.7812 8.875 12.9102 8.875 14.5938C8.875 15.957 9.68359 16.7852 11.3125 17.125L12.4688 17.375C13.5664 17.6094 14 17.9609 14 18.5312C14 19.207 13.3164 19.6562 12.3438 19.6562C11.2891 19.6562 10.5547 19.1914 10.4688 18.4688H8.65625C8.72656 20.1328 10.1211 21.1875 12.25 21.1875C14.4922 21.1875 15.875 20.082 15.875 18.2812C15.875 16.8945 15.1094 16.1289 13.3125 15.75L12.2188 15.5C11.1719 15.2773 10.75 14.9883 10.75 14.4375C10.75 13.7578 11.3789 13.3125 12.3125 13.3125C13.2148 13.3125 13.8516 13.793 13.9375 14.5H15.7188C15.6641 12.9062 14.25 11.7812 12.2813 11.7812ZM20.4063 12.0312L17.3125 20.9688H19.1875L19.875 18.8125H23L23.6875 20.9688H25.7188L22.625 12.0312H20.4063ZM27.5625 12.0312V20.9688H33.4063V19.3125H29.4375V12.0312H27.5625ZM35.4062 12.0312V20.9688H41.3437V19.3438H37.2812V17.1875H41.0937V15.7188H37.2812V13.625H41.3437V12.0312H35.4062ZM21.4063 13.875H21.5L22.625 17.375H20.2813L21.4063 13.875ZM24 27H26V40.8438C25.7695 40.918 25.4883 41 25 41C24.5117 41 24.2344 40.918 24 40.8438V27ZM8.8125 32C8.48828 32.0664 8.22266 32.2891 8.09375 32.5938L2.09375 46.5938C1.95703 46.9023 1.98437 47.2578 2.16797 47.543C2.35156 47.8242 2.66406 47.9961 3 48H47C47.3359 47.9961 47.6484 47.8242 47.832 47.543C48.0156 47.2578 48.043 46.9023 47.9062 46.5938L41.9062 32.5938C41.7461 32.2344 41.3906 32.0039 41 32H30V34H40.3437L45.5 46H4.5L9.65625 34H20V32H9C8.96875 32 8.9375 32 8.90625 32C8.875 32 8.84375 32 8.8125 32Z" fill="var(--fill-0, #1D4BAB)"/>
</g>
</svg>
