<svg width="60" height="60" viewBox="0 0 60 60" fill="none" xmlns="http://www.w3.org/2000/svg">
<path d="M46 4.82812C45.4883 4.82812 44.9769 5.02306 44.5859 5.41406L37.4141 12.5859C36.6321 13.3659 36.6321 14.6321 37.4141 15.4141L44.5859 22.5859C45.3659 23.3659 46.6341 23.3659 47.4141 22.5859L54.5859 15.4141C55.3679 14.6341 55.3679 13.3679 54.5859 12.5859L47.4141 5.41406C47.0241 5.02306 46.5117 4.82812 46 4.82812ZM14 6C11.8783 6 9.84344 6.84285 8.34315 8.34315C6.84285 9.84344 6 11.8783 6 14C6 16.1217 6.84285 18.1566 8.34315 19.6569C9.84344 21.1571 11.8783 22 14 22C16.1217 22 18.1566 21.1571 19.6569 19.6569C21.1571 18.1566 22 16.1217 22 14C22 11.8783 21.1571 9.84344 19.6569 8.34315C18.1566 6.84285 16.1217 6 14 6ZM28 12C27.735 11.9963 27.4719 12.0452 27.2259 12.144C26.98 12.2429 26.7561 12.3896 26.5674 12.5757C26.3787 12.7618 26.2288 12.9835 26.1265 13.228C26.0242 13.4725 25.9715 13.7349 25.9715 14C25.9715 14.2651 26.0242 14.5275 26.1265 14.772C26.2288 15.0165 26.3787 15.2382 26.5674 15.4243C26.7561 15.6104 26.98 15.7571 27.2259 15.856C27.4719 15.9548 27.735 16.0037 28 16H32C32.265 16.0037 32.5281 15.9548 32.7741 15.856C33.02 15.7571 33.2439 15.6104 33.4326 15.4243C33.6213 15.2382 33.7712 15.0165 33.8735 14.772C33.9758 14.5275 34.0285 14.2651 34.0285 14C34.0285 13.7349 33.9758 13.4725 33.8735 13.228C33.7712 12.9835 33.6213 12.7618 33.4326 12.5757C33.2439 12.3896 33.02 12.2429 32.7741 12.144C32.5281 12.0452 32.265 11.9963 32 12H28ZM13.9688 25.9727C13.439 25.9809 12.9342 26.1991 12.5651 26.5791C12.196 26.9592 11.9927 27.4702 12 28V32C11.9963 32.265 12.0452 32.5281 12.144 32.7741C12.2429 33.02 12.3896 33.2439 12.5757 33.4326C12.7618 33.6213 12.9835 33.7712 13.228 33.8735C13.4725 33.9758 13.7349 34.0285 14 34.0285C14.2651 34.0285 14.5275 33.9758 14.772 33.8735C15.0165 33.7712 15.2382 33.6213 15.4243 33.4326C15.6104 33.2439 15.7571 33.02 15.856 32.7741C15.9548 32.5281 16.0037 32.265 16 32V28C16.0037 27.7324 15.9536 27.4668 15.8528 27.2189C15.7519 26.9711 15.6024 26.7459 15.413 26.5569C15.2236 26.3679 14.9982 26.2187 14.7501 26.1184C14.502 26.018 14.2363 25.9685 13.9688 25.9727ZM45.9688 25.9727C45.439 25.9809 44.9342 26.1991 44.5651 26.5791C44.196 26.9592 43.9927 27.4702 44 28V32C43.9963 32.265 44.0452 32.5281 44.144 32.7741C44.2429 33.02 44.3896 33.2439 44.5757 33.4326C44.7618 33.6213 44.9835 33.7712 45.228 33.8735C45.4725 33.9758 45.7349 34.0285 46 34.0285C46.2651 34.0285 46.5275 33.9758 46.772 33.8735C47.0165 33.7712 47.2382 33.6213 47.4243 33.4326C47.6104 33.2439 47.7571 33.02 47.856 32.7741C47.9548 32.5281 48.0037 32.265 48 32V28C48.0037 27.7324 47.9536 27.4668 47.8528 27.2189C47.7519 26.9711 47.6024 26.7459 47.413 26.5569C47.2236 26.3679 46.9982 26.2187 46.7501 26.1184C46.502 26.018 46.2363 25.9685 45.9688 25.9727ZM14 38C13.638 38.0005 13.283 38.0993 12.9728 38.2857C12.6625 38.4721 12.4087 38.7392 12.2383 39.0586L4.33594 50.8906C4.11691 51.2191 4.00002 51.6052 4 52C4 52.5304 4.21071 53.0391 4.58579 53.4142C4.96086 53.7893 5.46957 54 6 54H14H22C22.5304 54 23.0391 53.7893 23.4142 53.4142C23.7893 53.0391 24 52.5304 24 52C24 51.6052 23.8831 51.2191 23.6641 50.8906V50.8867L23.6523 50.8711C23.6485 50.8659 23.6446 50.8607 23.6406 50.8555L15.7617 39.0586L15.7539 39.043C15.5821 38.7277 15.3286 38.4645 15.02 38.281C14.7114 38.0975 14.359 38.0004 14 38ZM42 38C39.79 38 38 39.79 38 42V50C38 52.21 39.79 54 42 54H50C52.21 54 54 52.21 54 50V42C54 39.79 52.21 38 50 38H42Z" fill="#9B1EB1"/>
</svg>
