<svg width="78" height="27" viewBox="0 0 78 27" fill="none" xmlns="http://www.w3.org/2000/svg">
<path d="M37.9226 0.0119838C41.1538 -0.08947 44.6864 1.50984 45.5628 4.86495C45.9924 6.50905 45.8055 8.36731 45.8359 10.0659C45.8806 12.5955 45.78 15.1489 45.8618 17.6789C44.684 17.6933 43.5062 17.672 42.3284 17.6809C42.013 17.6832 41.6968 17.6737 41.383 17.7098C41.3566 17.0134 41.4109 16.2696 41.3411 15.5826C40.9546 16.0432 40.4288 16.5501 39.8946 16.8304C38.0724 17.7866 35.3674 18.0913 33.4039 17.55C31.9902 17.162 30.7903 16.2253 30.0711 14.9481C29.4774 13.7988 29.1995 12.7862 29.2962 11.4905C29.7482 5.43769 36.8692 5.74005 41.3734 6.17955C41.3594 6.10076 41.3443 6.02217 41.3279 5.9439C41.2049 5.36912 40.7022 4.73031 40.2048 4.44248C38.3866 3.39032 35.9382 3.64378 34.0431 4.35431C33.3696 4.60681 32.8405 4.9698 32.1603 5.11581C31.8405 4.03287 31.1252 2.90496 30.6883 1.82813C32.946 0.514876 35.3658 0.137273 37.9226 0.0119838ZM34.2323 13.6287C35.404 14.2402 36.6512 14.3841 37.9198 13.9841C39.1563 13.597 40.1856 12.7298 40.7769 11.5773C40.9773 11.1898 41.3898 10.191 41.3315 9.77644L41.2836 9.73137L41.0348 9.75277C39.6358 9.81775 38.2131 9.7455 36.8114 9.78614C35.4104 9.82681 33.1573 10.1474 33.2444 11.9991C33.2773 12.6978 33.6651 13.2455 34.2323 13.6287Z" fill="white"/>
<path d="M20.5064 0.0118415C22.6801 -0.101711 24.9596 0.69714 26.4408 2.31894C28.1204 4.15796 28.6582 7.49005 26.5717 9.24584C23.8092 11.5706 19.902 10.9306 16.588 10.7237C16.6245 10.8604 16.6641 10.9962 16.7067 11.131C17.6689 14.0925 21.1986 15.2016 23.7769 13.5116C24.5289 13.0187 24.9083 12.423 25.3089 11.6299C26.0844 11.9029 27.3909 12.5654 28.1943 12.9396C28.407 13.0368 28.7081 13.1618 28.8906 13.2954C29.0007 13.6544 27.9182 15.0058 27.6603 15.3052C24.6221 18.8331 18.6039 19.1453 15.1787 16.0147C11.5276 12.6777 11.2911 6.32313 14.5681 2.64916C16.1825 0.844638 18.1496 0.146433 20.5064 0.0118415ZM16.541 7.28097C17.1626 7.37621 17.7887 7.43848 18.4169 7.4675C18.7832 7.48598 19.3395 7.48789 19.6835 7.52817C21.0236 7.60389 23.6944 7.82833 23.7955 5.82019C23.878 4.18303 22.3113 3.3245 20.8049 3.40331C18.4993 3.58074 17.3034 5.31511 16.541 7.28097Z" fill="white"/>
<path d="M54.1568 0.0129173C57.0111 -0.146647 59.2142 1.1795 60.6571 3.57985C60.2518 3.94795 59.7907 4.47292 59.3775 4.86381C59.0677 5.15663 58.3949 5.74494 58.1709 6.04362C57.5165 4.64236 55.9004 3.588 54.3317 3.38062C52.4899 3.13715 50.724 4.72594 52.8201 5.90603C54.9461 7.10285 58.0591 7.48748 59.7727 9.42756C60.5868 10.3524 60.9992 11.5632 60.919 12.7926C60.8224 14.2223 60.1592 15.5543 59.0764 16.4932C57.4551 17.9119 55.3893 18.256 53.294 18.1185C51.2379 18.0039 49.418 17.0944 48.0877 15.531C47.7851 15.1757 46.9083 13.8655 46.9023 13.4325C47.0381 13.1688 48.8236 12.1964 49.1769 11.9654C49.4081 11.8144 49.8964 11.4846 50.1335 11.3583C51.0989 13.0893 52.3494 14.6049 54.5744 14.5172C55.6356 14.4754 56.7783 13.7906 56.6386 12.5974C56.411 10.87 53.712 10.4596 52.3298 9.89245C50.4453 9.15773 48.2394 8.13462 48.0746 5.80976C47.7927 1.83586 50.6885 0.243406 54.1568 0.0129173Z" fill="white"/>
<path d="M8.53052 0.0894818C10.622 -0.228816 12.2756 0.661224 13.6766 2.10828C13.4289 2.3535 13.2873 2.62992 13.0899 2.87837C12.641 3.44312 11.9229 4.66543 11.4535 5.15599C11.1244 4.99813 10.7935 4.75429 10.457 4.58995C9.76122 4.26935 8.6705 4.11903 7.91678 4.27602C6.54993 4.56078 5.63061 5.60967 5.06742 6.80174C4.1578 8.72709 4.28823 10.7243 4.28963 12.7829C4.28105 13.9567 4.28189 15.1305 4.29211 16.3042C4.29482 16.5165 4.3385 17.5462 4.25294 17.6722L4.08302 17.6824L0 17.6818C0.0352942 15.7264 0.00762537 13.6889 0.00774634 11.7285L0.00645077 0.593532C0.557049 0.541215 1.31759 0.559931 1.8784 0.559875C2.6724 0.559799 3.51556 0.54604 4.30644 0.573315C4.27522 1.23941 4.27614 2.09849 4.29143 2.76559C4.32696 2.71311 4.36465 2.66213 4.40438 2.61277C5.52712 1.22835 6.68468 0.280125 8.53052 0.0894818Z" fill="white"/>
<path d="M61.9896 0.592631C63.1243 0.508394 65.2064 0.547858 66.3914 0.569556C66.3323 1.19105 66.3491 1.93509 66.3491 2.56824L66.3503 5.5036L66.3491 8.41785C66.3471 10.1489 66.2568 11.6739 67.3991 13.1373C68.5142 14.566 70.7756 14.3595 72.0852 13.3401C73.2498 12.4334 73.6331 10.5454 73.6754 9.14746C73.7061 7.78044 73.6902 6.39989 73.6906 5.03248L73.6914 2.08319C73.6914 1.64087 73.7109 1.02108 73.689 0.591673C74.3677 0.540274 75.2069 0.558364 75.898 0.559489C76.5524 0.560555 77.3561 0.539727 77.9997 0.580808C77.9291 4.66849 77.9901 8.98081 77.9909 13.0858L77.9929 16.1796C77.9945 18.7681 77.9606 20.7748 76.37 22.9783C75.1478 24.6716 73.5349 25.7302 71.4663 26.1135C71.3845 26.1284 71.2367 26.2032 71.1697 26.2584H68.4615C68.2016 26.0532 67.5604 25.9936 67.1388 25.8735C65.2767 25.343 63.575 23.9861 62.7286 22.2373C62.711 22.2015 62.727 22.0895 62.7625 22.0641C63.3451 21.6373 65.5833 19.9268 66.1059 19.6799C66.2856 19.9816 66.4465 20.2601 66.6836 20.5263C68.6975 22.7858 72.1674 22.3416 73.338 19.4463C73.9625 17.9021 73.54 16.9188 73.7317 15.3942L73.7173 15.404C73.3384 15.6714 72.8525 16.3298 72.472 16.6855C69.9451 19.0485 65.5154 18.8416 63.5096 15.8964C61.778 13.3538 62.0247 11.0518 61.994 8.14602C61.9676 5.64198 62.0443 3.09461 61.9896 0.592631Z" fill="white"/>
</svg>
