<svg width="78" height="27" viewBox="0 0 78 27" fill="none" xmlns="http://www.w3.org/2000/svg">
<path d="M37.9246 0.0119532C41.1558 -0.0895005 44.6884 1.50981 45.5647 4.86492C45.9943 6.50902 45.8075 8.36728 45.8378 10.0659C45.8825 12.5955 45.7819 15.1489 45.8638 17.6788C44.686 17.6933 43.5082 17.6719 42.3304 17.6808C42.015 17.6832 41.6987 17.6737 41.3849 17.7098C41.3586 17.0134 41.4129 16.2696 41.343 15.5826C40.9565 16.0432 40.4307 16.5501 39.8965 16.8303C38.0744 17.7866 35.3693 18.0913 33.4059 17.55C31.9922 17.162 30.7923 16.2252 30.0731 14.9481C29.4794 13.7987 29.2014 12.7862 29.2982 11.4904C29.7502 5.43766 36.8712 5.74002 41.3754 6.17952C41.3614 6.10073 41.3462 6.02214 41.3298 5.94386C41.2069 5.36908 40.7042 4.73028 40.2067 4.44245C38.3886 3.39029 35.9401 3.64375 34.045 4.35428C33.3715 4.60678 32.8424 4.96977 32.1622 5.11578C31.8425 4.03284 31.1271 2.90493 30.6902 1.8281C32.9479 0.514845 35.3678 0.137243 37.9246 0.0119532ZM34.2342 13.6286C35.4059 14.2402 36.6532 14.384 37.9218 13.9841C39.1583 13.5969 40.1876 12.7298 40.7789 11.5772C40.9793 11.1898 41.3917 10.191 41.3334 9.77641L41.2855 9.73134L41.0368 9.75274C39.6378 9.81772 38.2151 9.74547 36.8134 9.78611C35.4124 9.82678 33.1592 10.1473 33.2464 11.9991C33.2793 12.6977 33.6671 13.2455 34.2342 13.6286Z" fill="#4F7DDD"/>
<path d="M20.5083 0.0117805C22.6821 -0.101772 24.9615 0.697079 26.4428 2.31888C28.1224 4.1579 28.6601 7.48999 26.5737 9.24578C23.8111 11.5705 19.9039 10.9305 16.5899 10.7237C16.6265 10.8603 16.666 10.9961 16.7086 11.1309C17.6708 14.0924 21.2005 15.2016 23.7789 13.5115C24.5308 13.0186 24.9103 12.4229 25.3108 11.6298C26.0863 11.9029 27.3929 12.5653 28.1962 12.9395C28.4089 13.0367 28.7101 13.1617 28.8926 13.2954C29.0027 13.6543 27.9202 15.0057 27.6622 15.3052C24.6241 18.8331 18.6058 19.1452 15.1806 16.0146C11.5295 12.6776 11.293 6.32306 14.57 2.6491C16.1844 0.844577 18.1515 0.146372 20.5083 0.0117805ZM16.5429 7.28091C17.1645 7.37615 17.7907 7.43842 18.4188 7.46743C18.7851 7.48592 19.3415 7.48783 19.6854 7.52811C21.0256 7.60383 23.6964 7.82827 23.7975 5.82013C23.8799 4.18297 22.3133 3.32444 20.8068 3.40324C18.5013 3.58068 17.3054 5.31504 16.5429 7.28091Z" fill="#4F7DDD"/>
<path d="M54.1549 0.0129173C57.0091 -0.146647 59.2122 1.1795 60.6551 3.57985C60.2499 3.94795 59.7887 4.47292 59.3755 4.86381C59.0657 5.15663 58.393 5.74494 58.169 6.04362C57.5146 4.64236 55.8984 3.588 54.3297 3.38062C52.488 3.13715 50.7221 4.72594 52.8182 5.90603C54.9442 7.10285 58.0572 7.48748 59.7708 9.42756C60.5849 10.3524 60.9973 11.5632 60.917 12.7926C60.8204 14.2223 60.1573 15.5543 59.0745 16.4932C57.4531 17.9119 55.3874 18.256 53.2921 18.1185C51.2359 18.0039 49.4161 17.0944 48.0858 15.531C47.7831 15.1757 46.9064 13.8655 46.9004 13.4325C47.0361 13.1688 48.8216 12.1964 49.1749 11.9654C49.4061 11.8144 49.8944 11.4846 50.1316 11.3583C51.097 13.0893 52.3474 14.6049 54.5725 14.5172C55.6337 14.4754 56.7764 13.7906 56.6366 12.5974C56.4091 10.87 53.7101 10.4596 52.3279 9.89245C50.4434 9.15773 48.2375 8.13462 48.0726 5.80976C47.7907 1.83586 50.6865 0.243406 54.1549 0.0129173Z" fill="#4F7DDD"/>
<path d="M8.53052 0.0894818C10.622 -0.228816 12.2756 0.661224 13.6766 2.10828C13.4289 2.3535 13.2873 2.62992 13.0899 2.87837C12.641 3.44312 11.9229 4.66543 11.4535 5.15599C11.1244 4.99813 10.7935 4.75428 10.457 4.58995C9.76122 4.26935 8.6705 4.11903 7.91678 4.27602C6.54993 4.56078 5.63061 5.60967 5.06742 6.80174C4.1578 8.72709 4.28823 10.7243 4.28963 12.7829C4.28105 13.9567 4.28189 15.1305 4.29211 16.3042C4.29482 16.5165 4.3385 17.5462 4.25294 17.6722L4.08302 17.6824L0 17.6818C0.0352942 15.7264 0.00762537 13.6889 0.00774634 11.7285L0.00645077 0.593532C0.557049 0.541215 1.31759 0.559931 1.8784 0.559875C2.6724 0.559799 3.51556 0.54604 4.30644 0.573314C4.27522 1.23941 4.27614 2.09849 4.29143 2.76559C4.32696 2.71311 4.36465 2.66213 4.40438 2.61277C5.52712 1.22835 6.68468 0.280125 8.53052 0.0894818Z" fill="#4F7DDD"/>
<path d="M61.9896 0.592692C63.1243 0.508455 65.2064 0.547919 66.3914 0.569617C66.3323 1.19111 66.3491 1.93515 66.3491 2.56831L66.3503 5.50366L66.3491 8.41791C66.3471 10.1489 66.2568 11.6739 67.3991 13.1374C68.5142 14.5661 70.7756 14.3595 72.0852 13.3402C73.2498 12.4335 73.6331 10.5455 73.6754 9.14752C73.7061 7.7805 73.6902 6.39995 73.6906 5.03254L73.6914 2.08325C73.6914 1.64093 73.7109 1.02114 73.689 0.591734C74.3677 0.540335 75.2069 0.558425 75.898 0.55955C76.5524 0.560616 77.3561 0.539788 77.9997 0.580869C77.9291 4.66855 77.9901 8.98087 77.9909 13.0859L77.9929 16.1797C77.9945 18.7682 77.9606 20.7748 76.37 22.9783C75.1478 24.6717 73.5349 25.7303 71.4663 26.1136C71.3845 26.1285 71.2367 26.2033 71.1697 26.2584H68.4615C68.2016 26.0533 67.5604 25.9937 67.1388 25.8736C65.2767 25.343 63.575 23.9861 62.7286 22.2374C62.711 22.2015 62.727 22.0896 62.7625 22.0642C63.3451 21.6374 65.5833 19.9269 66.1059 19.68C66.2856 19.9817 66.4465 20.2602 66.6836 20.5264C68.6975 22.7859 72.1674 22.3417 73.338 19.4463C73.9625 17.9022 73.54 16.9189 73.7317 15.3942L73.7173 15.404C73.3384 15.6715 72.8525 16.3299 72.472 16.6856C69.9451 19.0486 65.5154 18.8417 63.5096 15.8965C61.778 13.3539 62.0247 11.0519 61.994 8.14609C61.9676 5.64204 62.0443 3.09467 61.9896 0.592692Z" fill="#4F7DDD"/>
</svg>
